<svg xmlns="http://www.w3.org/2000/svg" viewBox="0 0 383.38 71.4"><defs><style>.cls-1{fill:#204921;}</style></defs><g id="Calque_2" data-name="Calque 2"><g id="Calque_1-2" data-name="Calque 1"><path class="cls-1" d="M7.77,71.4A9.12,9.12,0,0,1,5.27,71,7.14,7.14,0,0,1,2.8,69.74,7,7,0,0,1,.89,67.36,8.74,8.74,0,0,1,0,63.77,7.08,7.08,0,0,1,1.56,59a20.38,20.38,0,0,1,4.49-4.31A41,41,0,0,1,12.29,51q3.45-1.66,6.79-2.95t6.18-2.16c1.89-.57,3.36-1,4.41-1.17q.78-1.35,2.41-4.31c1.09-2,2.3-4.21,3.65-6.73s2.73-5.19,4.16-8,2.71-5.49,3.87-8,2.11-4.76,2.84-6.73a12.86,12.86,0,0,0,1-4.31A.93.93,0,0,0,47,5.75a3.66,3.66,0,0,0-1-.15,12.05,12.05,0,0,0-3.34.64A42.77,42.77,0,0,0,38.06,8c-1.67.73-3.38,1.58-5.14,2.53s-3.41,2-5,3a32.44,32.44,0,0,0-4.07,3.06,11.91,11.91,0,0,0-2.47,2.84,4.19,4.19,0,0,1,1.1.9,2.94,2.94,0,0,1,.64,1.67c.08.65-.07,1-.45,1a2.38,2.38,0,0,1-1.23-.42,4.67,4.67,0,0,1-1.21-1.06A7,7,0,0,1,19.33,20a3.75,3.75,0,0,1-.39-1.59,5,5,0,0,1,1.52-3.33,25,25,0,0,1,4.07-3.67,58.88,58.88,0,0,1,5.59-3.63c2.05-1.18,4.08-2.24,6.06-3.17A50.19,50.19,0,0,1,41.6,2.35a12.56,12.56,0,0,1,3.68-.84A3.49,3.49,0,0,1,48.39,3a8.12,8.12,0,0,1,1.1,4.24,16,16,0,0,1-.73,4.87,67.16,67.16,0,0,1-2.28,6.74c-.95,2.44-2,5-3.22,7.56s-2.38,5.07-3.54,7.41S37.48,38.2,36.49,40,34.7,43.19,34.1,44.1a4,4,0,0,0,1.63.26,5.66,5.66,0,0,1,1.57.15,2.35,2.35,0,0,1,1.24.8,3.57,3.57,0,0,1,.56,2.12.39.39,0,0,1-.06.37,1,1,0,0,1-.5.19A3.25,3.25,0,0,1,38,48c-.71,0-1.4,0-2.07-.08s-1.37-.07-2.08-.07h-1a4.28,4.28,0,0,0-1.1.15q-1.29,2-2.95,4.46T25.17,57.6q-2,2.61-4.12,5.07a52.37,52.37,0,0,1-4.38,4.42,22,22,0,0,1-4.5,3.14A9.57,9.57,0,0,1,7.77,71.4ZM5.52,68.08a10.92,10.92,0,0,0,6-1.93,33,33,0,0,0,5.73-4.77,56.44,56.44,0,0,0,5.16-6.16q2.43-3.33,4.27-6c-.63.2-1.68.58-3.14,1.13s-3.1,1.25-4.91,2.08S14.9,54.13,13,55.14a43.39,43.39,0,0,0-5.22,3.22,20.41,20.41,0,0,0-3.85,3.48,4.92,4.92,0,0,0-1.38,3.44,2.59,2.59,0,0,0,1.13,2.15A3.51,3.51,0,0,0,5.52,68.08Z"/><path class="cls-1" d="M42.75,51.28a17.89,17.89,0,0,1,1.4-6.65,29.87,29.87,0,0,1,3.54-6.4,21.33,21.33,0,0,1,4.72-4.76,8.59,8.59,0,0,1,4.94-1.85,2.34,2.34,0,0,1,2.33,1.62,9.27,9.27,0,0,1,.64,3.45,7.18,7.18,0,0,1-1.46,4.19,16.58,16.58,0,0,1-3.53,3.67A20.75,20.75,0,0,1,51,47.12a9.8,9.8,0,0,1-3.81,1h-.57a.83.83,0,0,1-.5-.16,10.47,10.47,0,0,0-.34,1.1c-.11.43-.21.87-.31,1.33s-.17.88-.22,1.28a6.93,6.93,0,0,0-.09.91c0,1.66.66,2.49,2,2.49A9,9,0,0,0,51,53.93a41.18,41.18,0,0,0,4.78-2.84c1.66-1.13,3.32-2.37,5-3.7s3.12-2.57,4.43-3.71,2.4-2.08,3.26-2.84a9.84,9.84,0,0,1,1.4-1.13,1.93,1.93,0,0,1,1.29.64A2.17,2.17,0,0,1,71.84,42c0,.35-.46,1-1.38,2A44.69,44.69,0,0,1,66.9,47.2Q64.71,49,62,51t-5.31,3.59a47.85,47.85,0,0,1-4.91,2.69,9.44,9.44,0,0,1-3.62,1.06,4,4,0,0,1-1.88-.53,6.38,6.38,0,0,1-1.78-1.44,7.68,7.68,0,0,1-1.29-2.19A8,8,0,0,1,42.75,51.28Zm4.77-6.65h.34a5.66,5.66,0,0,0,2.61-.72,15.32,15.32,0,0,0,2.67-1.78,21,21,0,0,0,2.41-2.31,20.76,20.76,0,0,0,1.83-2.3,6.56,6.56,0,0,0,.9-1.78c.13-.48,0-.72-.37-.72a6.07,6.07,0,0,0-2.92.8,14.2,14.2,0,0,0-2.81,2,18.85,18.85,0,0,0-2.47,2.83,24.34,24.34,0,0,0-1.91,3.18Zm8.71-24.58a3.91,3.91,0,0,1-1.07-.88,2,2,0,0,1-.51-1.39,2.35,2.35,0,0,1,.59-1.37A10.89,10.89,0,0,1,56.62,15a13.78,13.78,0,0,1,1.54-1.18c.51-.32.89-.56,1.16-.71.41,0,.76.29,1.06.86a3.5,3.5,0,0,1,.45,1.56,5.16,5.16,0,0,1-.76.87c-.43.42-.89.88-1.4,1.36L57.21,19.1C56.74,19.53,56.41,19.85,56.23,20.05Z"/><path class="cls-1" d="M64,57.18a2.61,2.61,0,0,1-.82-.68,1.87,1.87,0,0,1-.47-1.28A7.42,7.42,0,0,1,63.33,53c.43-1.09,1-2.35,1.63-3.79s1.38-2.93,2.19-4.5,1.58-3,2.33-4.38,1.43-2.53,2-3.48a6.29,6.29,0,0,1,1.32-1.67c.33,0,.67.29,1,.87a3.22,3.22,0,0,1,.5,1.63c-.74,1.51-1.45,2.82-2.1,3.93a6.33,6.33,0,0,0-1,2.12,9,9,0,0,0,.92-.95l2.16-2.34,2.84-3.06c1-1.11,2-2.13,2.92-3.07s1.74-1.71,2.47-2.34S83.82,31,84.08,31s.81.31,1.21.91a3.58,3.58,0,0,1,.59,2,6.65,6.65,0,0,1-.26,1.51c-.16.66-.36,1.34-.59,2s-.45,1.4-.67,2.08-.41,1.25-.56,1.7a5.43,5.43,0,0,1,.7,1.18,3.42,3.42,0,0,1,.42,1.32c0,.61-.24.91-.73.91a2.1,2.1,0,0,1-2-1.48,7.54,7.54,0,0,1-.65-3.06v-.72a3.55,3.55,0,0,1,.11-.79c-1.57,1.21-3.06,2.39-4.49,3.55a51,51,0,0,0-4.07,3.71,39.46,39.46,0,0,0-3.73,4.42A48.8,48.8,0,0,0,65.83,56a2.25,2.25,0,0,1-.59.76c-.24.2-.48.4-.7.61Z"/><path class="cls-1" d="M84.53,53.48a15,15,0,0,1,.36-3.07c.25-1.13.56-2.26.93-3.4a28.56,28.56,0,0,1,1.29-3.25c.49-1,1-1.95,1.46-2.76a11.07,11.07,0,0,1,3.2-5.64,7.36,7.36,0,0,1,5-2.08,4.38,4.38,0,0,1,2.86.87,6.35,6.35,0,0,1,1.69,2.12,8.66,8.66,0,0,1,.81,2.69,19.73,19.73,0,0,1,.2,2.64,19.37,19.37,0,0,1-.79,5.45c1.24-.56,2.46-1.18,3.65-1.86s2.32-1.34,3.37-2,2-1.27,2.78-1.85l1.94-1.4a.49.49,0,0,1,.28-.08.77.77,0,0,1,.56.3,3.22,3.22,0,0,1,.48.68,1.87,1.87,0,0,1,.22.76.86.86,0,0,1-.14.61,13,13,0,0,1-2.36,2.3A32.92,32.92,0,0,1,108.76,47a41.86,41.86,0,0,1-4.27,2.27A32.75,32.75,0,0,1,100,51a19.89,19.89,0,0,1-4.86,6.2,8.94,8.94,0,0,1-5.75,2.42,4,4,0,0,1-3.71-1.89A8.11,8.11,0,0,1,84.53,53.48Zm4.1-5.83a24.34,24.34,0,0,0-1.24,3.07,9.94,9.94,0,0,0-.5,3.13,3,3,0,0,0,.42,1.78A2,2,0,0,0,89,56.2,6.57,6.57,0,0,0,92.7,55,14.84,14.84,0,0,0,96,51.74a2.27,2.27,0,0,1-.59.07h-.59a14.22,14.22,0,0,1-1.63-.11,5.16,5.16,0,0,1-1.77-.57,5.82,5.82,0,0,1-1.62-1.28A6,6,0,0,1,88.63,47.65Zm3.59-6.58a3.15,3.15,0,0,1-.48,1.33c-.31.58-.72,1.27-1.2,2.08a5.45,5.45,0,0,0,.81,3.14c.54.78,1.64,1.17,3.29,1.17a10.91,10.91,0,0,0,1.76-.15c.62-.1,1.25-.23,1.89-.38a24.82,24.82,0,0,0,1.51-3.9,12.9,12.9,0,0,0,.56-3.67,6.21,6.21,0,0,0-.73-3.06A2.74,2.74,0,0,0,97,36.31a5.79,5.79,0,0,0-2.75.79,6.46,6.46,0,0,0-2.41,2.38A4.17,4.17,0,0,1,92.22,41.07Zm4.38-21A4.1,4.1,0,0,1,97.47,18c.58-.85,1.26-1.74,2-2.65s1.54-1.75,2.31-2.53,1.32-1.32,1.65-1.63a2.39,2.39,0,0,1,1.41,2.43v6.43c0,.4-.14.6-.4.6a1.22,1.22,0,0,1-.95-.45,3.61,3.61,0,0,1-.62-1.06,7.39,7.39,0,0,1-.34-1.29c-.07-.45-.14-.85-.22-1.21a23,23,0,0,0-2,2.53,13.89,13.89,0,0,0-1.6,3H98.4a1.78,1.78,0,0,1-1.21-.53A2,2,0,0,1,96.6,20.05Z"/><path class="cls-1" d="M104.69,56.88a6.42,6.42,0,0,1,.7-2.15c.51-1.19,1.15-2.61,1.94-4.28S109,47,109.91,45.08s1.83-3.73,2.7-5.44,1.63-3.19,2.33-4.43a19.16,19.16,0,0,1,1.43-2.31h.28c.41,0,.8.19,1.18.72a3.19,3.19,0,0,1,.62,1.55,13.26,13.26,0,0,1-.93,2.2q-.93,2-2.13,4.38c-.81,1.62-1.58,3.13-2.33,4.54s-1.22,2.3-1.41,2.65a16.06,16.06,0,0,0,2-1.89c.78-.86,1.65-1.82,2.58-2.87l2.87-3.26c1-1.11,1.91-2.13,2.83-3.06a33.63,33.63,0,0,1,2.53-2.35,4,4,0,0,1,1.88-1,1.5,1.5,0,0,1,1.26.68,2.7,2.7,0,0,1,.7,1.59,4.2,4.2,0,0,1-.36,1.78c-.28.73-.61,1.49-1,2.27s-.75,1.55-1.13,2.3-.65,1.37-.84,1.82c.56-.55,1.39-1.41,2.5-2.57S129.73,40,131,38.8s2.42-2.28,3.56-3.21a5.72,5.72,0,0,1,2.73-1.48q.56-.07,1.23.72a2.8,2.8,0,0,1,.74,1.55,7.3,7.3,0,0,1-.82,2.73q-.87,2-2.13,4.5t-2.7,5.25c-1,1.82-1.81,3.47-2.56,5s-1.3,2.71-1.68,3.67-.39,1.41-.05,1.36A5.28,5.28,0,0,0,132,57.3a39.22,39.22,0,0,0,3.48-3.6c1.22-1.41,2.45-2.92,3.71-4.53l3.48-4.51c1.07-1.38,2-2.55,2.69-3.51s1.19-1.44,1.38-1.44a1.39,1.39,0,0,1,1.15.53,2.78,2.78,0,0,1,.7,1.74,6.61,6.61,0,0,1-1.18,1.89q-1.17,1.59-3.06,3.82c-1.25,1.49-2.63,3.09-4.12,4.8s-3,3.29-4.36,4.73-2.67,2.65-3.82,3.63a5.89,5.89,0,0,1-2.44,1.55,4.08,4.08,0,0,1-2.41-.75,3.47,3.47,0,0,1-1.18-2.8,11.37,11.37,0,0,1,.84-4,56.92,56.92,0,0,1,2.19-5.26q1.29-2.73,2.67-5.29c.91-1.72,1.66-3.08,2.21-4.09-.82.81-1.88,1.9-3.17,3.29s-2.59,2.76-3.9,4.12-2.52,2.54-3.62,3.52a6,6,0,0,1-2.33,1.55,2,2,0,0,1-1.41-.57,2.2,2.2,0,0,1-.84-1.62,5.5,5.5,0,0,1,.62-1.86c.41-.88.9-1.82,1.46-2.83l1.6-2.88c.51-.91.83-1.53,1-1.89a14.81,14.81,0,0,0-2.33,2.2c-1,1.06-2,2.25-3.11,3.59s-2.27,2.74-3.43,4.2-2.25,2.79-3.26,4-1.92,2.22-2.72,3a4.47,4.47,0,0,1-1.71,1.29c-.42,0-.85-.22-1.32-.8A3.09,3.09,0,0,1,104.69,56.88Z"/><path class="cls-1" d="M142.93,51.28a17.89,17.89,0,0,1,1.4-6.65,29.87,29.87,0,0,1,3.54-6.4,21.54,21.54,0,0,1,4.72-4.76,8.59,8.59,0,0,1,4.94-1.85,2.34,2.34,0,0,1,2.33,1.62,9.28,9.28,0,0,1,.65,3.45,7.25,7.25,0,0,1-1.46,4.19,16.86,16.86,0,0,1-3.54,3.67,20.94,20.94,0,0,1-4.32,2.57,9.88,9.88,0,0,1-3.82,1h-.57a.83.83,0,0,1-.5-.16c-.11.31-.23.68-.34,1.1s-.21.87-.31,1.33-.17.88-.22,1.28a6.93,6.93,0,0,0-.09.91c0,1.66.66,2.49,2,2.49a9,9,0,0,0,3.9-1.13A41.18,41.18,0,0,0,156,51.09c1.66-1.13,3.32-2.37,5-3.7s3.12-2.57,4.43-3.71,2.4-2.08,3.26-2.84a9.84,9.84,0,0,1,1.4-1.13,1.91,1.91,0,0,1,1.29.64A2.17,2.17,0,0,1,172,42c0,.35-.46,1-1.38,2a43,43,0,0,1-3.56,3.25Q164.89,49,162.22,51t-5.31,3.59A47.85,47.85,0,0,1,152,57.26a9.44,9.44,0,0,1-3.62,1.06,4,4,0,0,1-1.88-.53,6.2,6.2,0,0,1-1.77-1.44,7.48,7.48,0,0,1-1.3-2.19A8,8,0,0,1,142.93,51.28Zm4.77-6.65H148a5.66,5.66,0,0,0,2.61-.72,15.32,15.32,0,0,0,2.67-1.78,21,21,0,0,0,2.41-2.31,20.76,20.76,0,0,0,1.83-2.3,6.56,6.56,0,0,0,.9-1.78c.13-.48,0-.72-.37-.72a6.07,6.07,0,0,0-2.92.8,14.2,14.2,0,0,0-2.81,2,18.85,18.85,0,0,0-2.47,2.83A24.34,24.34,0,0,0,148,43.87Z"/><path class="cls-1" d="M189.26,71.33a2.53,2.53,0,0,1-1-.61,1.37,1.37,0,0,1-.4-1.28,9.73,9.73,0,0,1,1.21-3.29c.73-1.39,1.62-2.91,2.67-4.58s2.2-3.39,3.45-5.18,2.46-3.49,3.62-5.11S201,48.19,202,46.86s1.61-2.36,2-3.06c-1.87.45-3.66.92-5.36,1.39l-4.8,1.33c0,.4-.14.63-.42.68a4.11,4.11,0,0,1-.71.07,2.58,2.58,0,0,1-1.6-.49c-.43-.32-.57-1-.42-1.92a.59.59,0,0,1,.09-.31.67.67,0,0,0,.08-.3c2.81-1.11,5.52-2,8.14-2.84s5.32-1.52,8.09-2.23q2.19-3.1,5.34-7.18t6.65-8.44q3.51-4.35,7.1-8.58t6.66-7.57c2-2.21,3.82-4,5.33-5.37s2.56-2,3.12-2a1.11,1.11,0,0,1,.92.46,2.77,2.77,0,0,1,.54,1.13A9,9,0,0,1,242.94,3a7.7,7.7,0,0,1,0,1.36,21.6,21.6,0,0,1-.84,3.66q-.67,2.23-1.66,4.92c-.65,1.79-1.36,3.65-2.13,5.56s-1.52,3.81-2.27,5.67-1.46,3.64-2.14,5.3-1.23,3.1-1.68,4.31c-.08.25-.16.51-.26.76l-.3.83h.61a4.29,4.29,0,0,1,2.28.57c.62.38.89,1.32.81,2.83l-.73.76a13.16,13.16,0,0,0-2-.15h-2.22q-1,3.18-2.18,7t-2.25,7.61q-1.06,3.73-1.83,7a49.94,49.94,0,0,0-1,5.22v1.29a.91.91,0,0,1,.68.45,1.54,1.54,0,0,1,.33.91,2.44,2.44,0,0,1-.73,1.44,1.79,1.79,0,0,1-1.23.6,1.68,1.68,0,0,1-1.83-1.21,7.18,7.18,0,0,1-.14-2.95,65.26,65.26,0,0,1,1.1-7.41c.5-2.48,1.07-4.87,1.71-7.19s1.29-4.55,2-6.69,1.31-4.13,1.91-5.94c-2.81.25-5.74.66-8.81,1.21s-6.14,1.19-9.21,1.89a1.47,1.47,0,0,0-.31.38l-.31.45-2.19,2.95c-.94,1.27-2,2.66-3.09,4.2s-2.28,3.17-3.48,4.88-2.32,3.34-3.37,4.88-2,2.93-2.7,4.2a15.56,15.56,0,0,0-1.46,3,1.91,1.91,0,0,1-.22,1.09,5.67,5.67,0,0,1-.73,1.1,8.28,8.28,0,0,1-.93.94A7.89,7.89,0,0,1,189.26,71.33ZM240.81,4.54Q233.05,12,225.93,20.42T212.17,38q7.86-1.44,16-2.27,1.35-4.23,3-8.09T234.46,20c1.16-2.52,2.29-5.06,3.37-7.6S239.91,7.21,240.81,4.54Z"/><path class="cls-1" d="M241.09,59.23a3.58,3.58,0,0,1-3-1.37,6.24,6.24,0,0,1-1.06-3.93,20.86,20.86,0,0,1,1.49-6.84,84.09,84.09,0,0,1,3.84-8.86c1.57-3.14,3.33-6.4,5.28-9.75s3.88-6.54,5.81-9.57,3.74-5.75,5.42-8.17,3.05-4.28,4.1-5.6a1.91,1.91,0,0,1,1.1.87,2.83,2.83,0,0,1,.47,1.56,8.92,8.92,0,0,1-1.09,2.15c-.73,1.24-1.69,2.82-2.87,4.76s-2.52,4.15-4,6.62-3.06,5-4.63,7.68-3.12,5.31-4.64,8-2.86,5.18-4,7.53-2.13,4.43-2.86,6.27a12.8,12.8,0,0,0-1.1,4.28c0,.91.32,1.36,1,1.36a3.94,3.94,0,0,0,2-.94,31.4,31.4,0,0,0,2.89-2.46q1.6-1.52,3.4-3.45l3.56-3.81,3.4-3.64c1.09-1.15,2-2.14,2.87-2.94a2.45,2.45,0,0,1,1.09.9,2.59,2.59,0,0,1,.59,1.59,4.68,4.68,0,0,1-1.21,2.23,47.26,47.26,0,0,1-3.11,3.56c-1.28,1.33-2.66,2.71-4.16,4.12s-3,2.7-4.38,3.86-2.69,2.12-3.79,2.87A5.34,5.34,0,0,1,241.09,59.23Z"/><path class="cls-1" d="M257.38,67.77a5.79,5.79,0,0,1-1.55-.22,5.43,5.43,0,0,1-1.52-.72,4.32,4.32,0,0,1-1.18-1.29,4.2,4.2,0,0,1-.53-1.93,4.51,4.51,0,0,1,.79-2.57,18.08,18.08,0,0,1,2.24-2.84,32.71,32.71,0,0,1,3.15-2.87q1.74-1.39,3.4-2.65c1.1-.83,2.12-1.59,3.06-2.27s1.64-1.22,2.13-1.62a18.88,18.88,0,0,0,1-2.57c.36-1.11.68-2.28,1-3.52s.5-2.45.67-3.63a16.6,16.6,0,0,0,.2-2.92,20.44,20.44,0,0,0-2.59,2.73q-1.62,2-3.48,4.39c-1.23,1.61-2.49,3.29-3.76,5s-2.43,3.34-3.48,4.8-1.93,2.66-2.64,3.59a7.54,7.54,0,0,1-1.18,1.4,1.58,1.58,0,0,1-1.21-.45,5.14,5.14,0,0,1-.81-1.29c.45-1.31.89-2.61,1.32-3.89s.89-2.51,1.37-3.67q1.58-3.85,3.74-8.55T262,30.75q2.36-4.8,4.69-9.34t4.24-8.06q1.9-3.51,3.23-5.67t1.65-2.16c.42,0,.83.29,1.24.87a4,4,0,0,1,.73,1.55q-.9,2.13-2.42,5.11T272,19.37c-1.2,2.21-2.41,4.48-3.65,6.8l-3.48,6.54c-1.09,2-2,3.89-2.81,5.52s-1.33,2.89-1.63,3.75a15.86,15.86,0,0,0,1.94-2.19c.73-1,1.5-1.92,2.3-2.88a23.72,23.72,0,0,1,2.45-2.53,4.6,4.6,0,0,1,2.3-1.25,2.84,2.84,0,0,1,2.5,1.29,7,7,0,0,1,1,3.4,20.1,20.1,0,0,1-.45,5.33,47.58,47.58,0,0,1-1.77,6.32A60,60,0,0,1,268,55.94a47.88,47.88,0,0,1-3.37,5.78A23.15,23.15,0,0,1,261,66,6.49,6.49,0,0,1,257.38,67.77Zm-.68-2.64a4.87,4.87,0,0,0,1.91-1.44,38,38,0,0,0,2.53-2.95c.86-1.11,1.63-2.22,2.33-3.33a15.72,15.72,0,0,0,1.37-2.57l-1.2.83c-.58.4-1.24.88-2,1.44s-1.48,1.16-2.24,1.81-1.48,1.31-2.11,2a10.83,10.83,0,0,0-1.52,1.93,3,3,0,0,0-.5,1.7.31.31,0,0,0,0,.38c.09.15.17.23.25.23Z"/><path class="cls-1" d="M273.83,57.18a2.61,2.61,0,0,1-.82-.68,1.87,1.87,0,0,1-.47-1.28,7.42,7.42,0,0,1,.64-2.23c.43-1.09,1-2.35,1.63-3.79s1.38-2.93,2.19-4.5,1.58-3,2.33-4.38,1.43-2.53,2.05-3.48a6.29,6.29,0,0,1,1.32-1.67c.34,0,.67.29,1,.87a3.22,3.22,0,0,1,.5,1.63c-.74,1.51-1.45,2.82-2.1,3.93a6.33,6.33,0,0,0-1,2.12,9,9,0,0,0,.92-.95l2.16-2.34,2.84-3.06c1-1.11,2-2.13,2.92-3.07s1.74-1.71,2.47-2.34,1.23-.95,1.49-.95.81.31,1.21.91a3.58,3.58,0,0,1,.59,2,7.11,7.11,0,0,1-.25,1.51c-.17.66-.37,1.34-.59,2s-.45,1.4-.68,2.08-.41,1.25-.56,1.7a5.43,5.43,0,0,1,.7,1.18,3.42,3.42,0,0,1,.42,1.32c0,.61-.24.91-.73.91a2.1,2.1,0,0,1-2-1.48,7.54,7.54,0,0,1-.65-3.06v-.72a3.1,3.1,0,0,1,.12-.79c-1.58,1.21-3.07,2.39-4.5,3.55A51,51,0,0,0,283,45.84a39.46,39.46,0,0,0-3.73,4.42A48.8,48.8,0,0,0,275.68,56a2.25,2.25,0,0,1-.59.76c-.24.2-.48.4-.7.61Z"/><path class="cls-1" d="M295.61,51.28A17.71,17.71,0,0,1,297,44.63a29,29,0,0,1,3.54-6.4,21.51,21.51,0,0,1,4.71-4.76,8.62,8.62,0,0,1,5-1.85,2.34,2.34,0,0,1,2.33,1.62,9.27,9.27,0,0,1,.64,3.45,7.25,7.25,0,0,1-1.46,4.19,16.41,16.41,0,0,1-3.54,3.67,20.43,20.43,0,0,1-4.32,2.57,9.84,9.84,0,0,1-3.82,1h-.56A.79.79,0,0,1,299,48a10.47,10.47,0,0,0-.34,1.1c-.12.43-.22.87-.31,1.33s-.17.88-.23,1.28a8.59,8.59,0,0,0-.08.91c0,1.66.65,2.49,2,2.49a9,9,0,0,0,3.91-1.13,41.1,41.1,0,0,0,4.77-2.84c1.67-1.13,3.32-2.37,5-3.7s3.13-2.57,4.44-3.71,2.39-2.08,3.25-2.84a9.54,9.54,0,0,1,1.41-1.13,1.93,1.93,0,0,1,1.29.64A2.16,2.16,0,0,1,324.7,42c0,.35-.45,1-1.37,2a45,45,0,0,1-3.57,3.25Q317.57,49,314.9,51t-5.3,3.59a47.92,47.92,0,0,1-4.92,2.69,9.35,9.35,0,0,1-3.62,1.06,4,4,0,0,1-1.88-.53,6.48,6.48,0,0,1-1.77-1.44,7.68,7.68,0,0,1-1.29-2.19A7.77,7.77,0,0,1,295.61,51.28Zm4.78-6.65h.33a5.67,5.67,0,0,0,2.62-.72A15.63,15.63,0,0,0,306,42.13a21.08,21.08,0,0,0,2.42-2.31,20.57,20.57,0,0,0,1.82-2.3,6.56,6.56,0,0,0,.9-1.78q.19-.72-.36-.72a6,6,0,0,0-2.92.8,13.92,13.92,0,0,0-2.81,2,18.3,18.3,0,0,0-2.47,2.83,23.29,23.29,0,0,0-1.91,3.18Z"/><path class="cls-1" d="M322.63,57.94a4.44,4.44,0,0,1-3.23-1.44A5.52,5.52,0,0,1,318,52.42a12.74,12.74,0,0,1,.65-3.56,36.08,36.08,0,0,1,1.74-4.5c.73-1.59,1.56-3.17,2.47-4.76a38.75,38.75,0,0,1,2.84-4.28,21.47,21.47,0,0,1,2.86-3.1A4.14,4.14,0,0,1,331.05,31a2.55,2.55,0,0,1,2.22,1.52,6.41,6.41,0,0,1,.87,3.25,9.23,9.23,0,0,1-.28,2,17.66,17.66,0,0,1-.73,2.31,11.8,11.8,0,0,1-1,2,1.56,1.56,0,1,1-2.89-1.06,1,1,0,0,1,.16-.56l.28-.42A12.69,12.69,0,0,0,331,37.52q.42-1.14.87-2.88a7.11,7.11,0,0,0-2.16,1.55,26.18,26.18,0,0,0-2.44,2.8c-.83,1.09-1.64,2.26-2.45,3.52a40,40,0,0,0-2.13,3.78,26.55,26.55,0,0,0-1.49,3.63,10.21,10.21,0,0,0-.56,3c0,.4,0,.82.06,1.25s.35.64.95.64a5.15,5.15,0,0,0,2.7-1.14,41.25,41.25,0,0,0,3.51-2.79q1.88-1.66,3.84-3.64t3.68-3.62c1.14-1.12,2.16-2,3.06-2.81a4,4,0,0,1,2-1.13,1.49,1.49,0,0,1,1.26.64,3,3,0,0,1,.59,1.25,5.67,5.67,0,0,1-1.46,1.93c-.9.93-2,2-3.34,3.22s-2.78,2.48-4.35,3.81-3.07,2.55-4.49,3.64-2.68,2-3.77,2.68A5.4,5.4,0,0,1,322.63,57.94Z"/><path class="cls-1" d="M346.21,65.13a2.79,2.79,0,0,1-2-1,3.33,3.33,0,0,1-1-2.42,11.48,11.48,0,0,1,.59-3.14c.4-1.28.89-2.71,1.49-4.27s1.27-3.19,2-4.88,1.49-3.32,2.22-4.88,1.4-3,2-4.31,1.07-2.37,1.41-3.18c-.23.21-.64.63-1.24,1.29s-1.31,1.46-2.13,2.42-1.73,2-2.72,3.1-2,2.24-2.95,3.4q-3.48,4-7.7,8.93a1.83,1.83,0,0,1-1.34-.64,2.22,2.22,0,0,1-.62-1.63,11.87,11.87,0,0,1,.81-2.42c.55-1.36,1.27-3.08,2.16-5.14s1.94-4.4,3.12-7,2.41-5.24,3.68-7.94,2.54-5.37,3.79-8,2.43-5.07,3.51-7.26,2-4.07,2.84-5.64,1.37-2.59,1.71-3.1a2.21,2.21,0,0,1,1.32.87,3,3,0,0,1,.53,1.78,18.87,18.87,0,0,1-1.23,3c-.83,1.79-1.87,4-3.12,6.62s-2.62,5.44-4.1,8.47-2.88,5.89-4.21,8.58-2.47,5.05-3.43,7-1.54,3.24-1.77,3.74c.27-.4.73-1,1.41-1.85l2.33-2.88c.88-1.08,1.81-2.19,2.81-3.32s1.94-2.17,2.86-3.1A32,32,0,0,1,351.74,34a3.19,3.19,0,0,1,1.6-.91,2.13,2.13,0,0,1,1.8,1.13,4.4,4.4,0,0,1,.73,2.43,11.73,11.73,0,0,1-.87,3.66q-.87,2.38-2.16,5.19c-.87,1.86-1.77,3.77-2.73,5.7s-1.79,3.7-2.52,5.26A38.82,38.82,0,0,0,346,60.36c-.33,1-.31,1.51.06,1.51a3.39,3.39,0,0,0,1.88-1.06,28.36,28.36,0,0,0,2.47-2.45c.85-.94,1.63-1.84,2.36-2.73s1.27-1.5,1.6-1.85A23.66,23.66,0,0,0,356,51.66c.64-.9,1.31-1.88,2-2.91s1.43-2.09,2.17-3.18,1.39-2,2-2.91,1.11-1.56,1.54-2.12.69-.83.76-.83a1.51,1.51,0,0,1,1.32.72,2.75,2.75,0,0,1,.48,1.55,13.74,13.74,0,0,1-1.52,2.76c-.86,1.34-1.92,2.86-3.17,4.58s-2.63,3.5-4.13,5.37-3,3.57-4.38,5.1a41.44,41.44,0,0,1-4,3.82A5.27,5.27,0,0,1,346.21,65.13Z"/><path class="cls-1" d="M355.31,65.5a24.27,24.27,0,0,1,1.4-8.73,79.12,79.12,0,0,1,3.87-9.46q2.31-4.73,4.81-9t4.24-7.42l.67-1.13h-7c-.64,0-1.28,0-1.91.07s-1.28.08-1.91.08a5.42,5.42,0,0,1-.56-.95,2.88,2.88,0,0,1-.28-1.32,2.44,2.44,0,0,1,.44-1.51c.87-.05,1.74-.08,2.62-.08H367c.88,0,1.75,0,2.62-.07a13.26,13.26,0,0,1,1.74-.2c.56,0,1.1-.06,1.63-.11.78-1.06,1.6-2.27,2.44-3.63s1.66-2.7,2.44-4L380,14.41a13.76,13.76,0,0,1,1.66-2.31H382q.45,0,.87.84a3.27,3.27,0,0,1,.42,1.43,4.82,4.82,0,0,1-.62,2.19c-.45,1-1,2-1.62,3.07s-1.3,2.15-2,3.21-1.3,1.95-1.82,2.65H378a17.15,17.15,0,0,1,1.86.11,6.36,6.36,0,0,1,1.74.46,3.22,3.22,0,0,1,1.29,1,2.67,2.67,0,0,1,.5,1.7,7.2,7.2,0,0,1-.05.83c0,.36-.15.53-.34.53h-.56a3.38,3.38,0,0,0-1.63-.53,21.56,21.56,0,0,0-2.47-.15c-.64,0-1.23,0-1.8,0s-1,0-1.29,0h-.56l-.84,1.36q-1.06,1.44-2.67,4t-3.37,5.82c-1.18,2.15-2.35,4.41-3.51,6.81s-2.21,4.75-3.14,7.07a58.8,58.8,0,0,0-2.25,6.55,18.83,18.83,0,0,0-.79,5.25,3.13,3.13,0,0,0,.23,1.06,1.07,1.07,0,0,1-.11,1.06.51.51,0,0,1-.4.23,2.28,2.28,0,0,1-1.74-1A3.51,3.51,0,0,1,355.31,65.5Z"/></g></g></svg>